<svg width="32" height="32" viewBox="0 0 32 32" fill="none" xmlns="http://www.w3.org/2000/svg">
<path d="M21.9632 8.86029C22.513 8.86029 22.9587 8.42154 22.9587 7.88031C22.9587 7.33908 22.513 6.90032 21.9632 6.90032C21.4133 6.90032 20.9676 7.33908 20.9676 7.88031C20.9676 8.42154 21.4133 8.86029 21.9632 8.86029Z" fill="white"/>
<path d="M9.97079 8.86029C10.5206 8.86029 10.9663 8.42154 10.9663 7.88031C10.9663 7.33908 10.5206 6.90032 9.97079 6.90032C9.42096 6.90032 8.97524 7.33908 8.97524 7.88031C8.97524 8.42154 9.42096 8.86029 9.97079 8.86029Z" fill="white"/>
<path d="M6.97397 20.6651C7.52099 20.6651 7.96444 20.2286 7.96444 19.6901C7.96444 19.1516 7.52099 18.7151 6.97397 18.7151C6.42694 18.7151 5.98349 19.1516 5.98349 19.6901C5.98349 20.2286 6.42694 20.6651 6.97397 20.6651Z" fill="white"/>
<path d="M9.96571 5.91034C10.5127 5.91034 10.9562 5.47382 10.9562 4.93536C10.9562 4.39689 10.5127 3.96037 9.96571 3.96037C9.41869 3.96037 8.97524 4.39689 8.97524 4.93536C8.97524 5.47382 9.41869 5.91034 9.96571 5.91034Z" fill="white"/>
<path d="M12.9473 20.6701C13.4971 20.6701 13.9429 20.2313 13.9429 19.6901C13.9429 19.1489 13.4971 18.7101 12.9473 18.7101C12.3975 18.7101 11.9517 19.1489 11.9517 19.6901C11.9517 20.2313 12.3975 20.6701 12.9473 20.6701Z" fill="white"/>
<path d="M24.9549 20.6701C25.5047 20.6701 25.9505 20.2313 25.9505 19.6901C25.9505 19.1489 25.5047 18.7101 24.9549 18.7101C24.4051 18.7101 23.9594 19.1489 23.9594 19.6901C23.9594 20.2313 24.4051 20.6701 24.9549 20.6701Z" fill="white"/>
<path d="M21.9683 11.7902C22.5181 11.7902 22.9638 11.3515 22.9638 10.8103C22.9638 10.269 22.5181 9.83027 21.9683 9.83027C21.4184 9.83027 20.9727 10.269 20.9727 10.8103C20.9727 11.3515 21.4184 11.7902 21.9683 11.7902Z" fill="white"/>
<path d="M21.9683 5.91034C22.5153 5.91034 22.9587 5.47382 22.9587 4.93536C22.9587 4.39689 22.5153 3.96037 21.9683 3.96037C21.4212 3.96037 20.9778 4.39689 20.9778 4.93536C20.9778 5.47382 21.4212 5.91034 21.9683 5.91034Z" fill="white"/>
<path d="M6.97397 8.85529C7.5238 8.85529 7.96952 8.41654 7.96952 7.87531C7.96952 7.33408 7.5238 6.89532 6.97397 6.89532C6.42414 6.89532 5.97841 7.33408 5.97841 7.87531C5.97841 8.41654 6.42414 8.85529 6.97397 8.85529Z" fill="white"/>
<path d="M9.96571 23.61C10.5127 23.61 10.9562 23.1735 10.9562 22.6351C10.9562 22.0966 10.5127 21.6601 9.96571 21.6601C9.41869 21.6601 8.97524 22.0966 8.97524 22.6351C8.97524 23.1735 9.41869 23.61 9.96571 23.61Z" fill="white"/>
<path d="M9.96571 11.7902C10.5155 11.7902 10.9613 11.3515 10.9613 10.8103C10.9613 10.269 10.5155 9.83027 9.96571 9.83027C9.41588 9.83027 8.97016 10.269 8.97016 10.8103C8.97016 11.3515 9.41588 11.7902 9.96571 11.7902Z" fill="white"/>
<path d="M24.96 8.85029C25.507 8.85029 25.9505 8.41377 25.9505 7.87531C25.9505 7.33684 25.507 6.90032 24.96 6.90032C24.413 6.90032 23.9695 7.33684 23.9695 7.87531C23.9695 8.41377 24.413 8.85029 24.96 8.85029Z" fill="white"/>
<path d="M12.9625 17.7201C13.5124 17.7201 13.9581 17.2814 13.9581 16.7402C13.9581 16.1989 13.5124 15.7602 12.9625 15.7602C12.4127 15.7602 11.967 16.1989 11.967 16.7402C11.967 17.2814 12.4127 17.7201 12.9625 17.7201Z" fill="white"/>
<path d="M18.9867 8.84529C19.5337 8.84529 19.9771 8.40877 19.9771 7.87031C19.9771 7.33184 19.5337 6.89532 18.9867 6.89532C18.4396 6.89532 17.9962 7.33184 17.9962 7.87031C17.9962 8.40877 18.4396 8.84529 18.9867 8.84529Z" fill="white"/>
<path d="M21.9632 23.605C22.5102 23.605 22.9536 23.1685 22.9536 22.6301C22.9536 22.0916 22.5102 21.6551 21.9632 21.6551C21.4161 21.6551 20.9727 22.0916 20.9727 22.6301C20.9727 23.1685 21.4161 23.605 21.9632 23.605Z" fill="white"/>
<path d="M12.9625 11.8052C13.5124 11.8052 13.9581 11.3665 13.9581 10.8253C13.9581 10.284 13.5124 9.84527 12.9625 9.84527C12.4127 9.84527 11.967 10.284 11.967 10.8253C11.967 11.3665 12.4127 11.8052 12.9625 11.8052Z" fill="white"/>
<path d="M12.9473 8.84529C13.4943 8.84529 13.9378 8.40877 13.9378 7.87031C13.9378 7.33184 13.4943 6.89532 12.9473 6.89532C12.4003 6.89532 11.9568 7.33184 11.9568 7.87031C11.9568 8.40877 12.4003 8.84529 12.9473 8.84529Z" fill="white"/>
<path d="M18.9714 11.8102C19.5213 11.8102 19.967 11.3715 19.967 10.8303C19.967 10.289 19.5213 9.85027 18.9714 9.85027C18.4216 9.85027 17.9759 10.289 17.9759 10.8303C17.9759 11.3715 18.4216 11.8102 18.9714 11.8102Z" fill="white"/>
<path d="M18.9511 5.91034C19.4981 5.91034 19.9416 5.47382 19.9416 4.93536C19.9416 4.39689 19.4981 3.96037 18.9511 3.96037C18.4041 3.96037 17.9606 4.39689 17.9606 4.93536C17.9606 5.47382 18.4041 5.91034 18.9511 5.91034Z" fill="white"/>
<path d="M18.9867 20.6701C19.5337 20.6701 19.9771 20.2336 19.9771 19.6951C19.9771 19.1566 19.5337 18.7201 18.9867 18.7201C18.4396 18.7201 17.9962 19.1566 17.9962 19.6951C17.9962 20.2336 18.4396 20.6701 18.9867 20.6701Z" fill="white"/>
<path d="M21.9733 17.7301C22.5204 17.7301 22.9638 17.2936 22.9638 16.7552C22.9638 16.2167 22.5204 15.7802 21.9733 15.7802C21.4263 15.7802 20.9829 16.2167 20.9829 16.7552C20.9829 17.2936 21.4263 17.7301 21.9733 17.7301Z" fill="white"/>
<path d="M18.9714 17.7151C19.5185 17.7151 19.9619 17.2786 19.9619 16.7402C19.9619 16.2017 19.5185 15.7652 18.9714 15.7652C18.4244 15.7652 17.981 16.2017 17.981 16.7402C17.981 17.2786 18.4244 17.7151 18.9714 17.7151Z" fill="white"/>
<path d="M9.96063 17.7301C10.5077 17.7301 10.9511 17.2936 10.9511 16.7552C10.9511 16.2167 10.5077 15.7802 9.96063 15.7802C9.41361 15.7802 8.97016 16.2167 8.97016 16.7552C8.97016 17.2936 9.41361 17.7301 9.96063 17.7301Z" fill="white"/>
<path d="M6.97905 11.8202C7.52607 11.8202 7.96952 11.3837 7.96952 10.8453C7.96952 10.3068 7.52607 9.87027 6.97905 9.87027C6.43202 9.87027 5.98857 10.3068 5.98857 10.8453C5.98857 11.3837 6.43202 11.8202 6.97905 11.8202Z" fill="white"/>
<path d="M24.9549 11.8202C25.5019 11.8202 25.9454 11.3837 25.9454 10.8453C25.9454 10.3068 25.5019 9.87027 24.9549 9.87027C24.4079 9.87027 23.9644 10.3068 23.9644 10.8453C23.9644 11.3837 24.4079 11.8202 24.9549 11.8202Z" fill="white"/>
<path d="M12.9829 5.91034C13.5299 5.91034 13.9733 5.47382 13.9733 4.93536C13.9733 4.39689 13.5299 3.96037 12.9829 3.96037C12.4358 3.96037 11.9924 4.39689 11.9924 4.93536C11.9924 5.47382 12.4358 5.91034 12.9829 5.91034Z" fill="white"/>
<path d="M18.4584 1.13042C18.9359 0.845426 19.5657 1.06542 19.8502 1.52541C20.1041 1.94041 19.9213 2.4904 19.3524 2.86539C19.0527 3.06539 18.499 2.93039 18.1689 2.5504C17.8387 2.1704 17.8438 1.50041 18.4584 1.13542V1.13042Z" fill="white"/>
<path d="M12.5663 1.09542C13.059 0.870425 13.6229 1.05042 13.8921 1.56041C14.0952 1.95541 13.9276 2.5254 13.3994 2.85539C13.0083 3.10039 12.4343 2.86539 12.1346 2.4554C11.7943 1.99041 11.9924 1.36042 12.5663 1.09542Z" fill="white"/>
<path d="M18.9511 14.7552C19.4953 14.7552 19.9365 14.3209 19.9365 13.7852C19.9365 13.2495 19.4953 12.8152 18.9511 12.8152C18.4069 12.8152 17.9657 13.2495 17.9657 13.7852C17.9657 14.3209 18.4069 14.7552 18.9511 14.7552Z" fill="white"/>
<path d="M15.9644 17.6901C16.5087 17.6901 16.9498 17.2559 16.9498 16.7202C16.9498 16.1844 16.5087 15.7502 15.9644 15.7502C15.4202 15.7502 14.979 16.1844 14.979 16.7202C14.979 17.2559 15.4202 17.6901 15.9644 17.6901Z" fill="white"/>
<path d="M21.9632 14.7552C22.5074 14.7552 22.9486 14.3209 22.9486 13.7852C22.9486 13.2495 22.5074 12.8152 21.9632 12.8152C21.419 12.8152 20.9778 13.2495 20.9778 13.7852C20.9778 14.3209 21.419 14.7552 21.9632 14.7552Z" fill="white"/>
<path d="M12.9829 14.7552C13.5271 14.7552 13.9683 14.3209 13.9683 13.7852C13.9683 13.2495 13.5271 12.8152 12.9829 12.8152C12.4386 12.8152 11.9975 13.2495 11.9975 13.7852C11.9975 14.3209 12.4386 14.7552 12.9829 14.7552Z" fill="white"/>
<path d="M15.9644 20.6551C16.5087 20.6551 16.9498 20.2208 16.9498 19.6851C16.9498 19.1494 16.5087 18.7151 15.9644 18.7151C15.4202 18.7151 14.979 19.1494 14.979 19.6851C14.979 20.2208 15.4202 20.6551 15.9644 20.6551Z" fill="white"/>
<path d="M9.97079 14.7552C10.515 14.7552 10.9562 14.3209 10.9562 13.7852C10.9562 13.2495 10.515 12.8152 9.97079 12.8152C9.42657 12.8152 8.9854 13.2495 8.9854 13.7852C8.9854 14.3209 9.42657 14.7552 9.97079 14.7552Z" fill="white"/>
<path d="M15.9644 11.8152C16.5087 11.8152 16.9498 11.381 16.9498 10.8453C16.9498 10.3095 16.5087 9.87527 15.9644 9.87527C15.4202 9.87527 14.979 10.3095 14.979 10.8453C14.979 11.381 15.4202 11.8152 15.9644 11.8152Z" fill="white"/>
<path d="M15.9695 8.85029C16.5137 8.85029 16.9549 8.41601 16.9549 7.88031C16.9549 7.3446 16.5137 6.91032 15.9695 6.91032C15.4253 6.91032 14.9841 7.3446 14.9841 7.88031C14.9841 8.41601 15.4253 8.85029 15.9695 8.85029Z" fill="white"/>
<path d="M24.9854 14.7502C25.5268 14.7502 25.9657 14.3182 25.9657 13.7852C25.9657 13.2523 25.5268 12.8202 24.9854 12.8202C24.444 12.8202 24.0051 13.2523 24.0051 13.7852C24.0051 14.3182 24.444 14.7502 24.9854 14.7502Z" fill="white"/>
<path d="M6.94857 14.7502C7.48999 14.7502 7.92889 14.3182 7.92889 13.7852C7.92889 13.2523 7.48999 12.8202 6.94857 12.8202C6.40716 12.8202 5.96825 13.2523 5.96825 13.7852C5.96825 14.3182 6.40716 14.7502 6.94857 14.7502Z" fill="white"/>
<path d="M3.96698 23.625C4.5084 23.625 4.9473 23.193 4.9473 22.6601C4.9473 22.1271 4.5084 21.6951 3.96698 21.6951C3.42557 21.6951 2.98667 22.1271 2.98667 22.6601C2.98667 23.193 3.42557 23.625 3.96698 23.625Z" fill="white"/>
<path d="M6.94857 23.605C7.48999 23.605 7.92889 23.173 7.92889 22.6401C7.92889 22.1071 7.48999 21.6751 6.94857 21.6751C6.40716 21.6751 5.96825 22.1071 5.96825 22.6401C5.96825 23.173 6.40716 23.605 6.94857 23.605Z" fill="white"/>
<path d="M27.967 23.625C28.5084 23.625 28.9473 23.193 28.9473 22.6601C28.9473 22.1271 28.5084 21.6951 27.967 21.6951C27.4256 21.6951 26.9867 22.1271 26.9867 22.6601C26.9867 23.193 27.4256 23.625 27.967 23.625Z" fill="white"/>
<path d="M3.96698 26.54C4.5084 26.54 4.9473 26.108 4.9473 25.575C4.9473 25.0421 4.5084 24.61 3.96698 24.61C3.42557 24.61 2.98667 25.0421 2.98667 25.575C2.98667 26.108 3.42557 26.54 3.96698 26.54Z" fill="white"/>
<path d="M3.96698 29.5249C4.5084 29.5249 4.9473 29.0929 4.9473 28.56C4.9473 28.027 4.5084 27.595 3.96698 27.595C3.42557 27.595 2.98667 28.027 2.98667 28.56C2.98667 29.0929 3.42557 29.5249 3.96698 29.5249Z" fill="white"/>
<path d="M6.94857 26.56C7.48999 26.56 7.92889 26.128 7.92889 25.595C7.92889 25.0621 7.48999 24.63 6.94857 24.63C6.40716 24.63 5.96825 25.0621 5.96825 25.595C5.96825 26.128 6.40716 26.56 6.94857 26.56Z" fill="white"/>
<path d="M24.9854 26.56C25.5268 26.56 25.9657 26.128 25.9657 25.595C25.9657 25.0621 25.5268 24.63 24.9854 24.63C24.444 24.63 24.0051 25.0621 24.0051 25.595C24.0051 26.128 24.444 26.56 24.9854 26.56Z" fill="white"/>
<path d="M15.9695 5.87034C16.5109 5.87034 16.9498 5.4383 16.9498 4.90536C16.9498 4.37241 16.5109 3.94037 15.9695 3.94037C15.4281 3.94037 14.9892 4.37241 14.9892 4.90536C14.9892 5.4383 15.4281 5.87034 15.9695 5.87034Z" fill="white"/>
<path d="M15.9644 2.95539C16.5059 2.95539 16.9448 2.52335 16.9448 1.99041C16.9448 1.45746 16.5059 1.02542 15.9644 1.02542C15.423 1.02542 14.9841 1.45746 14.9841 1.99041C14.9841 2.52335 15.423 2.95539 15.9644 2.95539Z" fill="white"/>
<path d="M24.9803 23.61C25.5217 23.61 25.9606 23.178 25.9606 22.6451C25.9606 22.1121 25.5217 21.6801 24.9803 21.6801C24.4389 21.6801 24 22.1121 24 22.6451C24 23.178 24.4389 23.61 24.9803 23.61Z" fill="white"/>
<path d="M27.9721 29.5199C28.5107 29.5199 28.9473 29.0901 28.9473 28.56C28.9473 28.0298 28.5107 27.6 27.9721 27.6C27.4335 27.6 26.9968 28.0298 26.9968 28.56C26.9968 29.0901 27.4335 29.5199 27.9721 29.5199Z" fill="white"/>
<path d="M30.979 26.56C31.5177 26.56 31.9543 26.1302 31.9543 25.6C31.9543 25.0698 31.5177 24.64 30.979 24.64C30.4404 24.64 30.0038 25.0698 30.0038 25.6C30.0038 26.1302 30.4404 26.56 30.979 26.56Z" fill="white"/>
<path d="M15.9594 14.7402C16.4924 14.7402 16.9244 14.3149 16.9244 13.7902C16.9244 13.2655 16.4924 12.8402 15.9594 12.8402C15.4264 12.8402 14.9943 13.2655 14.9943 13.7902C14.9943 14.3149 15.4264 14.7402 15.9594 14.7402Z" fill="white"/>
<path d="M0.980317 26.565C1.52173 26.565 1.96063 26.133 1.96063 25.6C1.96063 25.0671 1.52173 24.635 0.980317 24.635C0.438903 24.635 0 25.0671 0 25.6C0 26.133 0.438903 26.565 0.980317 26.565Z" fill="white"/>
</svg>
