<svg preserveAspectRatio="none" width="100%" height="100%" overflow="visible" viewBox="0 0 82 112" fill="none" xmlns="http://www.w3.org/2000/svg">
<g id="Vector" fill="#FC765E">
<path d="M4.80825e-07 1C4.80825e-07 0.447716 0.447716 9.61651e-07 1 9.61651e-07H11C11.5523 9.61651e-07 12 0.447716 12 1C12 1.55229 11.5523 2 11 2H1C0.447716 2 4.80825e-07 1.55229 4.80825e-07 1Z"/>
<path d="M81 9.17938e-07C81.5523 9.4208e-07 82 0.447716 82 1V11C82 11.5523 81.5523 12 81 12C80.4477 12 80 11.5523 80 11V1C80 0.447716 80.4477 8.93797e-07 81 9.17938e-07Z"/>
<path d="M1 9.61651e-07C1.55229 9.85792e-07 2 0.447716 2 1L2 11C2 11.5523 1.55228 12 1 12C0.447715 12 -2.41411e-08 11.5523 0 11L4.80825e-07 1C4.80825e-07 0.447716 0.447716 9.61651e-07 1 9.61651e-07Z"/>
<path d="M82 1C82 1.55229 81.5523 2 81 2L71 2C70.4477 2 70 1.55228 70 1C70 0.447715 70.4477 -4.82823e-08 71 0L81 9.17938e-07C81.5523 9.4208e-07 82 0.447716 82 1Z"/>
<path d="M82 111C82 111.552 81.5523 112 81 112H71C70.4477 112 70 111.552 70 111C70 110.448 70.4477 110 71 110H81C81.5523 110 82 110.448 82 111Z"/>
<path d="M1 112C0.447716 112 5.39536e-07 111.552 6.11959e-07 111L1.9233e-06 101C1.99572e-06 100.448 0.447717 100 1 100C1.55229 100 2 100.448 2 101L2 111C2 111.552 1.55229 112 1 112Z"/>
<path d="M81 112C80.4477 112 80 111.552 80 111V101C80 100.448 80.4477 100 81 100C81.5523 100 82 100.448 82 101V111C82 111.552 81.5523 112 81 112Z"/>
<path d="M6.11959e-07 111C7.08524e-07 110.448 0.447716 110 1 110H11C11.5523 110 12 110.448 12 111C12 111.552 11.5523 112 11 112H1C0.447716 112 5.39536e-07 111.552 6.11959e-07 111Z"/>
</g>
</svg>
