<svg preserveAspectRatio="none" width="100%" height="100%" overflow="visible" style="display: block;" viewBox="0 0 131.826 131.816" fill="none" xmlns="http://www.w3.org/2000/svg">
<g id="logo_debunk_B_wt">
<g id="Vector">
<path fill-rule="evenodd" clip-rule="evenodd" d="M9.10914 110.91C10.17 111.067 11.0093 110.887 11.6292 110.368C12.2486 109.849 12.6639 108.877 12.876 107.452C12.986 106.715 13.0043 106.086 12.9314 105.564C12.8585 105.043 12.7086 104.611 12.4811 104.267C12.2538 103.923 11.9464 103.66 11.56 103.477C11.1729 103.294 10.7291 103.165 10.2286 103.09L8.61548 102.85L7.4521 110.663L9.10914 110.91ZM2.76604 96.48L11.2726 97.746C14.4248 98.2149 16.7316 99.358 18.1923 101.174C19.6531 102.99 20.1632 105.381 19.7217 108.345C19.5072 109.786 19.1031 111.058 18.5103 112.158C17.9174 113.259 17.1475 114.157 16.2007 114.853C15.2539 115.549 14.1247 116.025 12.8145 116.283C11.5036 116.54 10.0313 116.546 8.39626 116.303L1.49275e-07 115.053L2.76604 96.48Z" fill="var(--fill-0, white)"/>
<path fill-rule="evenodd" clip-rule="evenodd" d="M21.8779 99.3243L37.3006 101.62L36.4958 107.024L27.5693 105.696L27.3679 107.047L34.2615 108.073L33.5409 112.913L26.6474 111.887L26.4237 113.386L35.9245 114.8L35.1085 120.279L19.1118 117.898L21.8779 99.3243Z" fill="var(--fill-0, white)"/>
<path fill-rule="evenodd" clip-rule="evenodd" d="M43.2717 116.27L46.6082 116.766C46.9468 116.817 47.2369 116.789 47.4785 116.682C47.7201 116.576 47.8744 116.302 47.9401 115.86C48.0059 115.417 47.9457 115.111 47.7608 114.942C47.5748 114.772 47.2688 114.655 46.8415 114.591L43.5937 114.108L43.2717 116.27ZM47.5738 110.13C48.1777 110.219 48.5226 109.978 48.6078 109.404C48.693 108.831 48.4406 108.501 47.8517 108.413L44.5156 107.917L44.2597 109.636L47.5738 110.13ZM38.7808 101.84L49.762 103.474C50.9255 103.647 51.8784 103.919 52.6217 104.289C53.3642 104.659 53.9303 105.108 54.3184 105.634C54.7071 106.161 54.9511 106.745 55.051 107.388C55.1505 108.03 55.1459 108.72 55.0363 109.457C54.8778 110.522 54.5433 111.326 54.0337 111.869C53.5235 112.413 52.8467 112.789 52.002 112.999C52.3924 113.207 52.7561 113.446 53.0929 113.713C53.4287 113.981 53.7043 114.306 53.9183 114.69C54.1328 115.073 54.2807 115.518 54.3634 116.025C54.4461 116.531 54.4375 117.119 54.3371 117.791C54.2151 118.61 53.999 119.327 53.6894 119.942C53.3794 120.557 52.937 121.052 52.3617 121.427C51.7865 121.802 51.0646 122.047 50.1973 122.16C49.33 122.273 48.2697 122.237 47.0179 122.051L36.0148 120.413L38.7808 101.84Z" fill="var(--fill-0, white)"/>
<path fill-rule="evenodd" clip-rule="evenodd" d="M62.9487 124.873C61.5045 124.659 60.251 124.309 59.1867 123.824C58.1214 123.339 57.2651 122.697 56.6168 121.897C55.9677 121.098 55.5311 120.137 55.3066 119.015C55.0823 117.894 55.0809 116.588 55.3025 115.097L56.8759 104.533L63.5268 105.523L61.9899 115.841C61.9167 116.332 61.8831 116.763 61.8884 117.132C61.8936 117.501 61.9633 117.817 62.0974 118.08C62.2312 118.342 62.4371 118.553 62.7144 118.711C62.9917 118.87 63.3663 118.984 63.8379 119.054C64.7368 119.188 65.3755 119.041 65.7558 118.611C66.1358 118.182 66.3979 117.485 66.5418 116.518L68.0788 106.2L74.7293 107.19L73.1559 117.754C72.9269 119.294 72.533 120.57 71.9755 121.584C71.4183 122.598 70.706 123.383 69.8405 123.941C68.9742 124.498 67.9626 124.846 66.8058 124.983C65.6486 125.12 64.3628 125.084 62.9487 124.873Z" fill="var(--fill-0, white)"/>
<path fill-rule="evenodd" clip-rule="evenodd" d="M76.1428 107.4L83.5446 108.502L87.3054 117.826L88.4058 109.225L94.2828 110.1L91.5168 128.673L84.5349 127.634L80.435 117.557L79.2545 126.848L73.3768 125.973L76.1428 107.4Z" fill="var(--fill-0, white)"/>
<path fill-rule="evenodd" clip-rule="evenodd" d="M100.439 125.33L99.7582 129.899L93.1076 128.91L95.8733 110.336L102.524 111.326L101.606 117.493L107.695 112.096L114.566 113.118L107.072 119.612L112.64 131.816L104.619 130.623L101.656 124.281L100.439 125.33Z" fill="var(--fill-0, white)"/>
<path fill-rule="evenodd" clip-rule="evenodd" d="M29.5685 45.5535C29.6174 44.1102 29.7402 42.6551 29.9614 41.1911C32.9786 21.2225 51.2487 7.42539 70.7679 10.3747C83.4228 12.2868 93.4888 20.7716 98.1868 31.9414C102.441 31.4128 105.886 31.0344 108.252 30.7905C102.851 15.1861 89.4225 3.09886 72.2591 0.505522C47.4113 -3.2489 24.1546 14.314 20.3138 39.7334C19.8533 42.781 19.7006 45.802 19.8175 48.7674C22.9696 47.6356 26.2327 46.5648 29.5685 45.5535Z" fill="var(--fill-0, white)"/>
<path fill-rule="evenodd" clip-rule="evenodd" d="M85.5882 33.653C89.2026 33.1205 92.5675 32.661 95.5999 32.2691C91.1136 22.1668 81.8885 14.5321 70.3353 12.7864C52.1456 10.038 35.1195 22.9033 32.3062 41.5224C32.1383 42.6337 32.0326 43.7398 31.971 44.8394C35.783 43.7263 39.6741 42.6898 43.5857 41.7231C46.1028 30.0935 57.0213 22.2355 68.6806 23.9972C75.1587 24.976 80.529 28.7385 83.8633 33.9098C84.3772 33.8326 84.8851 33.7567 85.3889 33.6824C85.4561 33.6725 85.5214 33.663 85.5882 33.653Z" fill="var(--fill-0, white)"/>
<path fill-rule="evenodd" clip-rule="evenodd" d="M100.649 51.8718C97.6314 71.8407 79.3617 85.6372 59.8422 82.6878C45.6019 80.5362 34.6425 70.0627 30.921 56.8028C31.6907 56.5697 32.4637 56.3418 33.2391 56.1158C36.7145 68.4581 46.8941 78.2087 60.1475 80.2113C78.3372 82.9597 95.3633 70.0941 98.1765 51.4752C98.5586 48.9467 98.6378 46.4473 98.4727 44.0019C99.3354 43.9092 100.171 43.8218 100.975 43.7399C101.157 46.4 101.064 49.1212 100.649 51.8718ZM23.9374 66.2255C21.1997 65.8557 13.0158 63.0567 19.4586 60.652C20.1704 60.3864 20.8891 60.1254 21.6109 59.8672C22.0503 61.4069 22.5581 62.92 23.1495 64.394L23.852 66.0352C23.9251 66.1988 24.0036 66.3597 24.0785 66.5225L23.9374 66.2255ZM87.2681 49.827C85.3899 62.2575 74.0233 70.8467 61.8792 69.0118C53.1417 67.6916 46.4074 61.327 44.0064 53.234C59.36 49.458 74.9429 46.9376 87.4984 45.305C87.567 46.7883 87.4988 48.2998 87.2681 49.827ZM112.851 27.4372L113.222 32.3434C112.226 32.4262 47.2977 38.3468 10.5403 55.3471C9.18648 56.1222 -11.7733 65.6265 24.6912 67.8131L24.592 67.6049C30.9707 80.5772 43.2012 90.2683 58.3508 92.5574C83.1987 96.3118 106.455 78.7488 110.296 53.3294C110.831 49.786 110.948 46.2805 110.705 42.8557C112.744 42.6961 113.907 42.6249 114 42.62L114.371 47.5155L131.826 36.0391L112.851 27.4372Z" fill="var(--fill-0, white)"/>
</g>
</g>
</svg>
